<?xml version="1.0" encoding="UTF-8"?>
<svg id="Livello_1" xmlns="http://www.w3.org/2000/svg" version="1.1" viewBox="0 0 394.96 129.59">
  <!-- Generator: Adobe Illustrator 30.1.0, SVG Export Plug-In . SVG Version: 2.1.1 Build 136)  -->
  <defs>
    <style>
      .st0 {
        fill: #fff;
      }
    </style>
  </defs>
  <path class="st0" d="M2.08,14.95c1.95,0,5.72-.13,9.23-.26,2.99-.13,10.4-.91,12.61-.91,10.4,0,18.33,2.86,23.27,8.32,4.55,4.68,6.76,11.31,6.76,17.03,0,12.35-6.24,18.07-10.92,21.19-4.55,3.25-10.27,3.9-13.52,3.9-1.82,0-3.38-.26-4.16-.52-.78-.26-1.56-.65-1.56-1.17,0-.26.39-.65,1.43-.52,1.17.13,1.56.13,2.86.13,4.29,0,17.55-3.38,17.55-22.23,0-3.9-1.04-11.83-6.5-17.29-4.16-4.42-8.71-7.02-15.47-7.02-2.47,0-5.59.52-6.63.91-.52.26-1.17,1.3-1.17,2.47,0,2.34.13,29.64.13,43.55s.26,22.88.52,26.52c.39,5.07,1.95,6.37,5.98,7.02,1.95.26,2.6.65,2.6,1.17,0,.65-.91.91-2.08.91-3.9,0-6.37-.65-12.48-.65-3.25,0-6.5.52-7.93.52-1.17,0-2.34-.13-2.34-.78,0-.39.39-.78,2.21-1.17,3.9-.78,5.33-1.69,5.59-5.98.13-2.99.26-17.94.26-38.35,0-10.66-.65-27.95-.91-30.55-.13-2.47-1.69-3.9-5.33-4.29-.78-.13-2.08-.39-2.08-1.04,0-.39.91-.91,2.08-.91Z"/>
  <path class="st0" d="M128.18,63.83c0,20.93-12.87,35.49-33.93,35.49s-33.93-14.43-33.93-35.49,12.87-35.36,33.93-35.36,33.93,14.82,33.93,35.36ZM94.25,87.62c13.13,0,19.11-12.09,19.11-23.79s-5.85-23.66-19.24-23.66-18.98,11.83-18.98,23.66,5.98,23.79,19.11,23.79Z"/>
  <path class="st0" d="M148.98,58.63c-1.69,1.82-2.47,3.51-2.6,5.2-.13,1.17-.13,4.29-.13,7.02,0,9.75.26,17.03.52,19.63.52,4.16,2.34,5.07,7.41,5.46,1.82.26,2.47.52,2.47,1.17s-1.17.91-3.25.91c-1.95,0-7.02-.52-12.22-.52-3.38,0-5.46.78-6.76.78-1.43,0-1.95-.13-1.95-.65,0-.39.91-1.04,1.82-1.3,2.6-.65,4.29-1.82,4.81-5.33.26-2.21.39-9.62.39-18.2v-14.95c0-1.04-1.17-1.43-3.38-3.25-.91-.65-1.04-1.04-1.04-1.3s.78-.78,2.21-1.17c1.43-.39,4.68-1.56,6.5-2.6.91-.52,1.56-.65,1.82-.65s.52.39.52,1.95c0,1.04-.13,6.63-.13,8.32,0,.26.26.39.65,0,3.77-4.42,9.1-9.23,14.3-9.23,1.56,0,3.38.65,4.68,1.82.39.39.52,1.04.52,1.56,0,.78-1.04,2.47-2.34,3.51-1.17,1.04-1.56,1.04-1.95,1.04-.26,0-.78-.13-2.34-.91-1.43-.78-2.86-1.3-4.29-1.3-2.08,0-4.42,1.3-6.24,2.99Z"/>
  <path class="st0" d="M181.08,19.74v19.36h16.38v5.08h-16.38v34.72c0,5.59.45,9.26,1.36,11.01.91,1.76,3.35,2.63,7.33,2.63,3.05,0,6.6-.95,10.66-2.86v5.97c-4.11,1.99-8.12,2.98-12.06,2.98s-7.07-1.1-9.65-3.3c-2.58-2.2-3.87-5.25-3.87-9.14v-42.02h-15.74v-5.08h15.74v-13.9l4.25-5.46h1.97Z"/>
  <path class="st0" d="M217.54,53.96c1.06.04,2.08.07,3.06.1.98.02,1.9.04,2.76.05.86.01,1.63.02,2.32.03s1.27.02,1.76.02c.97,0,1.89-.03,2.76-.09.87-.06,1.61-.13,2.22-.19.23.8.35,1.44.35,1.9,0,.93-.39,1.54-1.16,1.84-.77.3-1.89.44-3.35.44s-3.09-.08-4.89-.24c-1.8-.16-3.78-.31-5.94-.46-.08,2.52-.19,5.26-.32,8.22-.13,2.96-.29,6.03-.49,9.2-.2,3.17-.45,6.4-.75,9.66-.3,3.27-.66,6.46-1.09,9.57-.43,3.11-.95,6.08-1.54,8.9-.59,2.83-1.28,5.39-2.06,7.7-1.25,3.62-2.66,6.64-4.22,9.06-1.57,2.42-3.23,4.37-5,5.84-1.77,1.47-3.6,2.52-5.49,3.14-1.89.62-3.78.94-5.67.94-1.63,0-3.14-.18-4.52-.54-1.39-.36-2.59-.85-3.6-1.46-1.02-.61-1.81-1.33-2.4-2.14-.58-.81-.87-1.68-.87-2.59,0-.51.12-1.01.35-1.51.23-.5.56-.94.97-1.32.41-.38.9-.69,1.46-.94.56-.24,1.17-.37,1.83-.37.61,1.1,1.29,2.04,2.03,2.81.74.77,1.53,1.41,2.38,1.9.85.5,1.72.86,2.63,1.09.91.23,1.83.35,2.76.35,2.43,0,4.5-.79,6.21-2.37s3.13-3.81,4.29-6.7c1.15-2.89,2.06-6.38,2.71-10.46.66-4.08,1.16-8.63,1.51-13.63.35-5,.58-10.41.7-16.22.12-5.81.2-11.9.24-18.27-1.99.02-3.83.1-5.52.22-1.69.13-3.11.4-4.25.82-.08-.19-.13-.39-.13-.6,0-.51.24-.98.73-1.41.49-.43,1.17-.82,2.05-1.16.88-.34,1.94-.61,3.17-.82,1.24-.21,2.61-.35,4.11-.41.08-1.99.19-3.89.32-5.7.13-1.81.29-3.6.49-5.36s.45-3.54.75-5.32c.3-1.78.67-3.62,1.11-5.52.57-2.48,1.31-4.7,2.22-6.68.91-1.98,1.94-3.73,3.09-5.27s2.4-2.85,3.75-3.95c1.34-1.1,2.72-2,4.14-2.71,1.42-.71,2.86-1.23,4.32-1.56,1.46-.33,2.89-.49,4.28-.49,2.05,0,3.88.27,5.47.81,1.6.54,2.95,1.25,4.06,2.13,1.11.88,1.96,1.87,2.54,2.97.58,1.1.87,2.22.87,3.36,0,.89-.14,1.68-.43,2.38-.29.7-.68,1.29-1.17,1.76-.5.48-1.07.84-1.73,1.09-.66.25-1.35.38-2.09.38-.97,0-2-.24-3.08-.73l-.13-.35c.4-.93.7-1.75.9-2.44.2-.7.3-1.42.3-2.16,0-1.02-.21-1.89-.62-2.62-.41-.73-.95-1.33-1.62-1.79-.67-.46-1.41-.8-2.22-1.02-.82-.21-1.62-.32-2.43-.32-2.37,0-4.38.53-6.01,1.59-1.64,1.06-3,2.51-4.09,4.36s-1.95,4.03-2.59,6.54c-.63,2.51-1.12,5.21-1.44,8.11-.33,2.9-.56,5.93-.7,9.09-.14,3.16-.26,6.32-.37,9.47Z"/>
  <path class="st0" d="M262.43,98.28c-16.77,0-26.39-10.4-26.39-28.6v-9.49c0-18.46,9.75-28.47,26.39-28.47s26.39,10.01,26.39,28.47v9.49c0,17.68-8.97,28.6-26.39,28.6ZM281.67,60.19c0-14.17-6.89-21.84-19.24-21.84s-19.24,7.67-19.24,21.84v9.49c0,13.65,6.11,21.97,19.24,21.97s19.24-8.32,19.24-21.97v-9.49Z"/>
  <path class="st0" d="M319.03,11.43v73.76c0,4.19.49,6.87,1.46,8.03.97,1.17,2.88,1.83,5.71,2v2.29h-32.06v-2.29c2.62-.08,4.57-.85,5.84-2.29.85-.97,1.27-3.55,1.27-7.74V23.74c0-4.15-.49-6.8-1.46-7.97-.97-1.16-2.86-1.83-5.65-2v-2.35h24.88Z"/>
  <path class="st0" d="M338.59,0c2.02,0,3.75.72,5.18,2.16,1.43,1.44,2.15,3.17,2.15,5.21s-.72,3.7-2.15,5.14c-1.43,1.44-3.16,2.16-5.18,2.16s-3.69-.72-5.12-2.16c-1.43-1.44-2.15-3.15-2.15-5.14s.72-3.77,2.15-5.21c1.43-1.44,3.14-2.16,5.12-2.16ZM334.18,28.44h8.89v69.06h-8.89V28.44Z"/>
  <path class="st0" d="M355.48,80.81c0-5.08,1.18-10.61,3.55-16.6,2.37-5.99,5.75-10.84,10.16-14.57,4.4-3.72,8.67-5.59,12.82-5.59,3.77,0,6.87,1.6,9.3,4.79,2.43,3.2,3.65,7.52,3.65,12.98,0,6.6-1.35,12.87-4.06,18.79-2.71,5.92-6.1,10.46-10.19,13.62-4.08,3.15-8.09,4.73-12.03,4.73-3.51,0-6.59-1.35-9.24-4.06-2.65-2.71-3.97-7.41-3.97-14.09ZM362.27,88.11c0,2.29.59,4.23,1.78,5.84,1.18,1.61,2.81,2.41,4.89,2.41,5.67,0,10.34-5.37,14-16.12,3.66-10.75,5.49-18.96,5.49-24.63,0-2.92-.56-5.11-1.68-6.57-1.12-1.46-2.8-2.19-5.05-2.19-5.29,0-9.85,4.98-13.68,14.95-3.83,9.96-5.74,18.74-5.74,26.31Z"/>
</svg>